PathFileType	4	(X/Y/Z)	D:\TRACE\spotREDO_2-26-24\spot_Both_Motion_1_1-v60.trc
DataRate	CameraRate	NumFrames	NumMarkers	Units	OrigDataRate	OrigDataStartFrame	OrigNumFrames
100.00	100.00	      28	9	mm	100.00	1751	      7000
Frame#	Time	front left toe			Front right toe			aft left toe			aft right toe			Arm			FL body			FR body			AL Body			AR Body			
		X1	Y1	Z1	X2	Y2	Z2	X3	Y3	Z3	X4	Y4	Z4	X5	Y5	Z5	X6	Y6	Z6	X7	Y7	Z7	X8	Y8	Z8	X9	Y9	Z9	

1751	17.500	-248.31346	2.38605	-437.88351	141.74249	0.15547	-419.99768	-293.06369	23.16080	154.78650	60.60628	25.13422	176.86375	-89.99211	680.73065	-781.26733	-110.20807	550.64673	-509.79416	44.42385	556.75793	-499.10889	-180.82397	570.10229	371.10013	-40.41247	576.63263	383.24115	
1752	17.510	-248.39371	2.40721	-437.82315	141.67598	0.03518	-420.09183	-292.80704	23.34789	154.82266	60.58032	24.74254	176.87633	-90.91846	680.06549	-780.09741	-109.85841	550.79413	-509.27432	45.13900	556.83466	-497.97839	-180.30321	570.11896	371.89453	-39.94893	576.62177	384.10394	
1753	17.520	-248.57933	2.34110	-437.72910	141.54982	0.00143	-420.14270	-292.62570	23.48312	154.87189	60.69687	24.73017	176.90167	-91.25308	679.71838	-779.37561	-109.36595	550.91290	-508.20758	45.16102	556.95966	-497.42792	-179.62889	570.12183	372.59103	-39.29398	576.61627	384.86218	
1754	17.530	-248.73749	2.23596	-437.56656	141.42213	0.00316	-420.26004	-292.49936	23.66593	154.92639	60.61766	24.48053	176.82379	-91.42082	679.47217	-778.73193	-109.32469	550.91553	-507.60162	45.04983	557.14771	-496.70499	-178.66434	570.14478	373.55280	-38.27876	576.60400	385.55594	
1755	17.540	-248.78644	2.13806	-437.46729	141.53969	0.21226	-420.25409	-292.30725	23.98149	154.90869	60.86282	24.47620	176.81424	-91.53242	679.19653	-778.28436	-109.87479	551.21863	-506.62692	44.98601	557.20068	-495.96753	-177.34238	569.90759	374.56775	-36.84415	576.41089	386.28738	
1756	17.550	-248.78870	2.01931	-437.38797	141.53520	0.52651	-420.24008	-292.10925	24.24638	154.95793	61.19999	24.49956	176.82722	-91.55763	678.99579	-778.14423	-109.58455	551.23523	-505.68005	45.19117	557.40314	-495.17340	-175.97444	569.97388	375.74387	-35.56121	576.37775	387.35080	
1757	17.560	-248.85654	2.05978	-437.32474	141.45387	0.45341	-420.47382	-291.97806	24.47513	155.07996	61.34185	24.42526	176.89772	-91.28777	678.87000	-778.05725	-109.53609	551.19403	-504.69510	45.09895	557.35687	-494.49283	-174.91512	569.94684	376.95868	-34.30739	576.24780	387.99847	
1758	17.570	-248.79115	1.94828	-437.34595	141.70096	0.34595	-420.59308	-291.84732	24.54146	155.16962	61.62727	24.43293	176.95390	-91.09387	678.79218	-778.14056	-109.80531	551.37323	-503.64822	45.12388	557.25800	-493.72296	-173.67018	569.83167	378.01242	-33.01923	576.25616	389.10159	
1759	17.580	-248.73201	1.84872	-437.32278	142.00211	0.47920	-420.57996	-291.59622	24.52533	155.13814	61.91359	24.52815	176.99850	-90.90916	678.49390	-778.19128	-109.19588	551.09210	-502.56387	45.50327	556.99683	-492.66870	-172.43886	569.90057	379.09799	-31.87198	576.09448	390.21637	
1760	17.590	-248.89273	1.28010	-437.27252	142.08466	0.60256	-420.64691	-291.51523	24.37648	155.08914	62.16564	24.89707	177.01790	-90.74113	678.19745	-778.39917	-108.92780	551.11023	-501.49298	45.91143	556.58484	-491.67816	-171.45866	570.24371	380.19589	-31.04303	576.09802	391.17349	
1761	17.600	-252.08224	5.77756	-435.11893	142.26259	-0.51617	-420.49649	-291.38010	24.72093	155.27066	62.38964	23.87553	176.95549	-90.58848	677.95764	-778.38843	-108.13625	551.02716	-500.19165	46.80648	556.37970	-490.52859	-170.69415	570.16394	381.38672	-30.04628	575.98169	392.38181	
1762	17.610	-251.27258	15.54582	-431.14594	143.79118	-1.10670	-419.61279	-289.86136	25.21495	154.99794	63.44942	23.35436	177.33038	-90.41342	677.82367	-778.52271	-107.09889	550.03265	-499.46881	47.97813	556.04596	-489.44678	-171.14252	569.92474	382.14743	-30.33520	576.26715	393.16470	
1763	17.620	-248.11627	27.05895	-428.05518	144.52161	-1.58620	-419.83997	-289.61667	24.61339	154.95351	63.47477	24.24424	177.02838	-89.98489	678.08081	-778.90503	-105.90431	548.96594	-498.60294	49.03319	555.62524	-488.52448	-170.94281	569.99329	382.62894	-30.89410	576.88898	393.73669	
1764	17.630	-251.82629	39.44968	-429.07776	144.89723	-1.31214	-419.50519	-289.87506	24.63536	155.02907	62.74461	24.56419	177.28812	-89.47948	678.51990	-778.51215	-104.90816	548.43933	-497.90195	49.80955	555.15582	-487.71979	-170.39127	570.10608	383.44931	-31.19608	578.70624	393.89130	
1765	17.640	-252.72989	52.36314	-433.63278	145.13768	-1.46981	-419.30521	-289.33841	24.71913	155.22940	63.90591	24.19390	177.16212	-89.64333	678.55048	-777.76886	-104.39839	547.64099	-497.17224	50.40924	554.70953	-486.81909	-170.55521	569.83533	384.27371	-30.71004	577.94916	394.86133	
1766	17.650	-256.16190	64.60066	-438.84448	145.17606	-1.44404	-419.44931	-289.01456	24.91988	155.36906	64.74225	24.10442	177.57210	-90.22400	677.98236	-777.71094	-103.95920	547.47900	-496.37619	50.79742	554.46582	-485.97580	-170.81012	569.72479	384.87814	-30.94436	577.83301	395.56912	
1767	17.660	-253.62186	76.35147	-442.50885	145.21547	-1.21971	-419.44391	-288.80289	25.11268	155.52599	64.86983	23.94562	177.37556	-90.87080	677.69183	-778.15619	-103.56966	547.46887	-495.94138	50.77110	554.30817	-485.48407	-170.20648	569.65338	385.67053	-31.26839	577.70044	395.93170	
1768	17.670	-254.45401	86.45193	-442.49808	145.39548	-1.13500	-419.47656	-288.60834	24.98342	155.60939	65.05833	23.82367	177.35469	-91.49371	677.78754	-777.74890	-103.77779	547.36041	-494.95828	50.79849	554.32513	-484.65222	-170.37929	569.10339	386.27243	-30.86052	577.21405	396.75302	
1769	17.680	-254.06245	94.44402	-440.98398	145.54588	-1.37110	-419.52423	-288.02634	24.70262	155.66147	65.47765	23.79597	177.40482	-91.53531	677.53534	-777.64215	-104.15199	547.55255	-494.54987	50.79294	554.30182	-484.08801	-170.57600	568.57416	386.92642	-30.73482	576.61859	397.52554	
1770	17.690	-253.29968	102.84089	-439.83954	146.10748	-1.20074	-419.40350	-287.63242	24.53302	155.67982	65.60633	23.86669	177.42093	-91.35860	677.41162	-777.66772	-104.27676	547.29010	-494.12396	50.47040	554.10950	-483.66977	-170.57524	568.42444	387.41611	-31.13406	576.47742	397.89822	
1771	17.700	-255.41904	110.31387	-440.13934	146.62459	-0.98309	-419.36520	-287.45374	24.58318	155.67892	66.15009	24.08988	177.47087	-91.07980	677.35864	-777.30121	-104.73376	546.93585	-493.57294	49.89400	553.94403	-483.11664	-170.78696	568.31744	387.80597	-31.15666	576.33728	398.33331	
1772	17.710	-256.17145	115.69637	-442.50610	146.84341	-0.85456	-419.31970	-286.82895	24.58893	155.68649	66.84618	24.34702	177.58171	-90.81818	677.10187	-777.16827	-105.64857	546.87872	-492.90198	49.25413	553.85577	-482.72717	-171.11905	568.22003	388.46201	-31.44991	576.34729	398.89523	
1773	17.720	-258.23999	121.03877	-444.53714	147.31653	-0.43268	-419.31183	-286.52576	24.59470	155.77299	67.23162	24.46487	177.64697	-90.68620	676.84808	-777.61310	-106.17229	546.87109	-492.61652	48.64198	553.78778	-482.26132	-171.44943	568.25391	388.98886	-31.68656	576.23383	399.34094	
1774	17.730	-257.86243	123.14364	-445.86475	147.46022	-0.26502	-419.52805	-286.24619	24.52634	155.83466	67.37425	24.40117	177.64871	-90.05530	676.29120	-777.42517	-107.63452	547.05951	-492.16690	47.32069	553.90735	-481.95139	-171.84033	568.03625	389.33771	-32.12245	576.07721	399.88989	
1775	17.740	-256.37833	122.47427	-446.64334	147.60103	-0.13271	-419.71924	-285.77042	24.39813	155.83238	67.35040	24.39517	177.58557	-89.34694	676.18542	-777.80865	-108.72018	547.08057	-491.86893	46.20801	554.08051	-481.94254	-172.30873	567.85065	389.61414	-32.49910	575.99585	400.04501	
1776	17.750	-252.69791	119.42083	-447.22235	148.07094	0.17615	-419.76205	-285.37668	24.38442	156.00061	68.26490	24.53322	177.70915	-87.62829	676.15973	-778.06299	-109.89288	547.12451	-491.69128	45.00501	554.15710	-481.75305	-172.86130	567.83655	389.98856	-32.97377	576.02374	400.12744	
1777	17.760	-250.62744	117.77389	-447.75690	148.51413	0.53641	-419.60092	-285.05392	24.33648	155.95364	68.81535	24.78441	177.70781	-86.11999	676.53345	-778.19189	-110.78155	547.01123	-491.46185	43.88274	554.14636	-481.66623	-173.66968	567.85132	390.20438	-33.85907	576.18127	400.28424	
1778	17.770	-249.88153	117.28358	-448.49484	148.77722	0.15115	-420.02240	-284.70444	24.23080	155.92433	69.14250	25.13912	177.75337	-84.84767	677.02142	-778.14093	-111.54943	546.63434	-491.52798	43.06601	554.03784	-481.60074	-174.97610	567.98138	390.13406	-35.16463	576.45361	400.37366	
